<svg xmlns="http://www.w3.org/2000/svg" viewBox="0 0 1111.82 178.81"><defs><style>.cls-1{fill:#231f20;}.cls-2,.cls-5{fill:none;}.cls-2{stroke:#6491cb;stroke-width:3.36px;}.cls-3{fill:#d2232a;}.cls-4{fill:#44b649;}.cls-6{fill:#6491cb;}</style></defs><title>Timeline_Logo</title><g id="Timeline2021_Logo_blue_1" data-name="Timeline2021_Logo_blue 1"><polygon class="cls-1" points="3.92 2.68 3.92 176.13 1067.63 176.13 1107.9 135.87 1107.9 42.94 1067.63 2.68 3.92 2.68"/><polygon class="cls-2" points="3.92 2.68 3.92 176.13 1067.63 176.13 1107.9 135.87 1107.9 42.94 1067.63 2.68 3.92 2.68"/><polygon class="cls-2" points="3.92 30.73 3.92 148.08 1067.63 148.08 1107.9 107.81 1107.9 70.99 1067.63 30.73 3.92 30.73"/><path class="cls-3" d="M177.61,68.51H154V55.74h62V68.51H192.3v61.75H177.61Z"/><path class="cls-3" d="M224.88,55.74h14.69v74.52H224.88Z"/><path class="cls-3" d="M253.83,55.74h13.1L291.31,100l23.84-44.28h13.1v74.52H313.88V83.1l-15.65,28.31a12.74,12.74,0,0,1-3.25,4.1,6.16,6.16,0,0,1-3.78,1.23h-4l-19-33.64v47.16H253.83Z"/><path class="cls-3" d="M344.32,127.49a9.61,9.61,0,0,1-2.87-7.24V55.74H398.3V68.51H356.14V85.76h39V98.53h-39v19H398.3v12.78H351.78A10.29,10.29,0,0,1,344.32,127.49Z"/><path class="cls-3" d="M411.13,127.54a9.5,9.5,0,0,1-2.82-7.18V55.74H423v61.74h40.45v12.78H418.63A10.36,10.36,0,0,1,411.13,127.54Z"/><path class="cls-3" d="M472,55.74h14.69v74.52H472Z"/><path class="cls-3" d="M500.92,55.74H514l35.77,50.67V55.74h14.37v74.52H551.07L515.3,79.58v50.68H500.92Z"/><path class="cls-3" d="M580.24,127.49a9.58,9.58,0,0,1-2.88-7.24V55.74h56.85V68.51H592.05V85.76h39V98.53h-39v19h42.16v12.78H587.69A10.27,10.27,0,0,1,580.24,127.49Z"/><path class="cls-4" d="M677.76,127.49a9.58,9.58,0,0,1-2.88-7.24V55.74h56.85V68.51H689.58V85.76h39V98.53h-39v19h42.15v12.78H685.21A10.27,10.27,0,0,1,677.76,127.49Z"/><path class="cls-4" d="M744.56,127.54a9.5,9.5,0,0,1-2.82-7.18V55.74h14.69v61.74h40.45v12.78H752.07A10.37,10.37,0,0,1,744.56,127.54Z"/><path class="cls-4" d="M805.4,55.74h14.69v74.52H805.4Z"/><path class="cls-4" d="M852.67,68.51H829V55.74h62V68.51H867.36v61.75H852.67Z"/><path class="cls-4" d="M901.75,127.49a9.58,9.58,0,0,1-2.88-7.24V55.74h56.85V68.51H913.56V85.76h39V98.53h-39v19h42.16v12.78H909.2A10.27,10.27,0,0,1,901.75,127.49Z"/><rect class="cls-5" x="2.24" y="1" width="1107.33" height="176.81"/><path class="cls-6" d="M992.82,66a9.1,9.1,0,1,1-2.67-6.44A8.77,8.77,0,0,1,992.82,66Zm-1.62,0A7.33,7.33,0,0,0,989,60.68a7.44,7.44,0,0,0-10.58,0,7.57,7.57,0,0,0,0,10.67,7.41,7.41,0,0,0,10.58,0A7.29,7.29,0,0,0,991.2,66ZM988,71h-2.49a4.52,4.52,0,0,1-.14-1.09,3.88,3.88,0,0,0-.37-1.86,2.21,2.21,0,0,0-1.86-.61h-.72V71h-2.55V61h3.61a8.21,8.21,0,0,1,2.64.29A2.64,2.64,0,0,1,988,64c0,1.47-.82,2.29-2.46,2.47a2.75,2.75,0,0,1,1.15.41A2.3,2.3,0,0,1,987.6,68a4.92,4.92,0,0,1,.22,1.55A5.64,5.64,0,0,0,988,71Zm-2.61-6.87a1.18,1.18,0,0,0-.53-1.08,3.59,3.59,0,0,0-1.79-.33h-.65v2.93h.72C984.62,65.68,985.37,65.17,985.37,64.16Z"/></g></svg>