<svg id="Timeline2021_Logo" xmlns="http://www.w3.org/2000/svg" xmlns:xlink="http://www.w3.org/1999/xlink" viewBox="0 0 1111.82 180.8"><defs><style>.cls-1,.cls-4{fill:none;}.cls-2{fill:#231f20;}.cls-3{clip-path:url(#clip-path);}.cls-4{stroke:#6491cb;stroke-width:3.07px;}.cls-5{fill:#d2232a;}.cls-6{fill:#fff200;}.cls-7{fill:#6491cb;}</style><clipPath id="clip-path"><rect class="cls-1" x="2.64" y="3.18" width="1107.33" height="176.73"/></clipPath></defs><title>Timeline_Logo</title><polygon class="cls-2" points="4.16 4.82 4.16 178.38 1072.04 178.38 1108.46 141.59 1108.46 41.6 1072.04 4.82 4.16 4.82"/><g class="cls-3"><polygon class="cls-4" points="4.16 4.82 4.16 178.38 1072.04 178.38 1108.46 141.59 1108.46 41.6 1072.04 4.82 4.16 4.82"/></g><path class="cls-5" d="M184.84,67.4H159.61V53.76h66.15V67.4H200.53v65.92H184.84Z"/><path class="cls-5" d="M235.31,53.76H251v79.56H235.31Z"/><path class="cls-5" d="M266.23,53.76h14l26,47.28L331.7,53.76h14v79.56H330.33V83L313.62,113.2a13.56,13.56,0,0,1-3.46,4.38,6.62,6.62,0,0,1-4,1.31H301.8L281.57,83v50.35H266.23Z"/><path class="cls-5" d="M362.84,130.37a10.27,10.27,0,0,1-3.07-7.73V53.76h60.7V67.4h-45V85.81h41.6V99.45h-41.6v20.23h45v13.64H370.8A11,11,0,0,1,362.84,130.37Z"/><path class="cls-5" d="M434.17,130.43a10.17,10.17,0,0,1-3-7.68v-69h15.69v65.92H490v13.64H442.18A11,11,0,0,1,434.17,130.43Z"/><path class="cls-5" d="M499.13,53.76h15.68v79.56H499.13Z"/><path class="cls-5" d="M530,53.76h14l38.2,54.1V53.76h15.34v79.56h-14l-38.19-54.1v54.1H530Z"/><path class="cls-5" d="M614.72,130.37a10.27,10.27,0,0,1-3.07-7.73V53.76h60.7V67.4h-45V85.81h41.6V99.45h-41.6v20.23h45v13.64H622.68A11,11,0,0,1,614.72,130.37Z"/><path class="cls-6" d="M712.48,122a26.08,26.08,0,0,1,2.5-11.82,21.55,21.55,0,0,1,8.53-8.64L751.7,84.67a8.39,8.39,0,0,0,3.24-3.18,8.1,8.1,0,0,0,1.19-4.09V73.76a6.32,6.32,0,0,0-2.33-5.11,9.2,9.2,0,0,0-6.08-1.93H737.26A8.28,8.28,0,0,0,730.33,70q-2.51,3.26-2.5,9.16H712.14q0-12.39,6.59-19.33T737,52.85h10.69a29,29,0,0,1,12.62,2.61,19.63,19.63,0,0,1,11.48,18.3V77.4a20.51,20.51,0,0,1-2.56,10.51,21.53,21.53,0,0,1-8,7.56l-27.39,15.92a13.44,13.44,0,0,0-4.15,3.52,7.82,7.82,0,0,0-1.42,4.77h44v13.64H712.48Z"/><path class="cls-6" d="M793.41,130.77a24.15,24.15,0,0,1-9.55-9.84,30.6,30.6,0,0,1-3.41-14.66V80.81a30.93,30.93,0,0,1,3.36-14.66,23.67,23.67,0,0,1,9.49-9.83,28.28,28.28,0,0,1,14.21-3.47h12a27.23,27.23,0,0,1,13.87,3.47,23.92,23.92,0,0,1,9.38,9.83,31,31,0,0,1,3.35,14.66v25.46a31.51,31.51,0,0,1-3.29,14.66,23.62,23.62,0,0,1-9.32,9.84,27.57,27.57,0,0,1-14,3.46h-12A28.17,28.17,0,0,1,793.41,130.77Zm25.92-10.4a9.7,9.7,0,0,0,8-3.81q3-3.81,3-10.06V80.58q0-6.24-3-10.06a9.72,9.72,0,0,0-8-3.8h-11.6a10.44,10.44,0,0,0-8.41,3.8q-3.18,3.81-3.18,10.06V106.5q0,6.25,3.18,10.06a10.42,10.42,0,0,0,8.41,3.81Z"/><path class="cls-6" d="M855.36,122a26.08,26.08,0,0,1,2.5-11.82,21.58,21.58,0,0,1,8.52-8.64l28.19-16.83a8.25,8.25,0,0,0,3.24-3.18A8,8,0,0,0,899,77.4V73.76a6.32,6.32,0,0,0-2.33-5.11,9.21,9.21,0,0,0-6.08-1.93H880.14A8.3,8.3,0,0,0,873.2,70c-1.66,2.17-2.5,5.22-2.5,9.16H855q0-12.39,6.59-19.33t18.3-6.93H890.6a28.87,28.87,0,0,1,12.61,2.61,19.58,19.58,0,0,1,11.48,18.3V77.4a20.51,20.51,0,0,1-2.55,10.51,21.53,21.53,0,0,1-8,7.56l-27.39,15.92a13.44,13.44,0,0,0-4.15,3.52,7.82,7.82,0,0,0-1.42,4.77h44v13.64H855.36Z"/><path class="cls-6" d="M938.22,70.81,919.92,80V65.47L942,53.76h11.94v79.56H938.22Z"/><path class="cls-7" d="M987.68,58.89A9.75,9.75,0,1,1,984.82,52,9.33,9.33,0,0,1,987.68,58.89Zm-1.73,0a7.82,7.82,0,0,0-2.34-5.7,7.94,7.94,0,0,0-11.3,0,8.08,8.08,0,0,0,0,11.39,7.92,7.92,0,0,0,11.3,0A7.78,7.78,0,0,0,986,58.89Zm-3.44,5.34h-2.66a4.54,4.54,0,0,1-.15-1.16,4.21,4.21,0,0,0-.39-2,2.41,2.41,0,0,0-2-.64h-.78v3.79h-2.71V53.51h3.85a9.17,9.17,0,0,1,2.82.31,2.83,2.83,0,0,1,2,2.87c0,1.57-.88,2.45-2.63,2.64a2.61,2.61,0,0,1,1.22.44,2.39,2.39,0,0,1,1,1.24,4.83,4.83,0,0,1,.23,1.65A6,6,0,0,0,982.51,64.23Zm-2.79-7.33a1.23,1.23,0,0,0-.57-1.15,3.75,3.75,0,0,0-1.91-.35h-.7v3.12h.78Q979.72,58.52,979.72,56.9Z"/><g class="cls-3"><polygon class="cls-4" points="4.16 32.84 4.16 150.36 1072.04 150.36 1108.46 113.57 1108.46 69.63 1072.04 32.84 4.16 32.84"/></g></svg>