<svg xmlns="http://www.w3.org/2000/svg" viewBox="0 0 1111.82 178.81"><defs><style>.cls-1{fill:#231f20;}.cls-2,.cls-4{fill:none;}.cls-2{stroke:#6491cb;stroke-width:3.36px;}.cls-3{fill:#d2232a;}.cls-5{font-size:24.2px;fill:#6491cb;font-family:MetroBlackLT-Two, MetroBlack LT Two;}</style></defs><title>Timeline_Logo</title><g id="Layer_1" data-name="Layer 1"><polygon class="cls-1" points="4.32 2.57 4.32 176.03 1068.03 176.03 1108.3 135.76 1108.3 42.84 1068.03 2.57 4.32 2.57"/><polygon class="cls-2" points="4.32 2.57 4.32 176.03 1068.03 176.03 1108.3 135.76 1108.3 42.84 1068.03 2.57 4.32 2.57"/><polygon class="cls-2" points="4.32 30.62 4.32 147.97 1068.03 147.97 1108.3 107.71 1108.3 70.89 1068.03 30.62 4.32 30.62"/><path class="cls-3" d="M178,68.41H154.37V55.63h62V68.41H192.7v61.74H178Z"/><path class="cls-3" d="M225.27,55.63H240v74.52h-14.7Z"/><path class="cls-3" d="M254.23,55.63h13.1l24.38,44.29,23.84-44.29h13.1v74.52H314.27V83l-15.64,28.32a13,13,0,0,1-3.25,4.1,6.21,6.21,0,0,1-3.78,1.22h-4.05L268.6,83v47.16H254.23Z"/><path class="cls-3" d="M344.72,127.38a9.59,9.59,0,0,1-2.87-7.24V55.63H398.7V68.41H356.54V85.65h39V98.43h-39v18.95H398.7v12.77H352.17A10.28,10.28,0,0,1,344.72,127.38Z"/><path class="cls-3" d="M411.52,127.44a9.53,9.53,0,0,1-2.82-7.19V55.63h14.69v61.75h40.46v12.77H419A10.38,10.38,0,0,1,411.52,127.44Z"/><path class="cls-3" d="M472.37,55.63h14.69v74.52H472.37Z"/><path class="cls-3" d="M501.32,55.63h13.1l35.77,50.67V55.63h14.37v74.52h-13.1L515.69,79.48v50.67H501.32Z"/><path class="cls-3" d="M580.63,127.38a9.59,9.59,0,0,1-2.87-7.24V55.63h56.85V68.41H592.45V85.65h39V98.43h-39v18.95h42.16v12.77H588.08A10.28,10.28,0,0,1,580.63,127.38Z"/><path class="cls-3" d="M678.15,127.38a9.57,9.57,0,0,1-2.88-7.24V55.63h56.85V68.41H690V85.65h39V98.43H690v18.95h42.15v12.77H685.6A10.28,10.28,0,0,1,678.15,127.38Z"/><path class="cls-3" d="M745,127.44a9.53,9.53,0,0,1-2.82-7.19V55.63h14.69v61.75h40.46v12.77H752.46A10.36,10.36,0,0,1,745,127.44Z"/><path class="cls-3" d="M805.79,55.63h14.69v74.52H805.79Z"/><path class="cls-3" d="M853.06,68.41H829.43V55.63h62V68.41H867.75v61.74H853.06Z"/><path class="cls-3" d="M902.14,127.38a9.57,9.57,0,0,1-2.88-7.24V55.63h56.85V68.41H914V85.65h39V98.43H914v18.95h42.16v12.77H909.59A10.27,10.27,0,0,1,902.14,127.38Z"/><rect class="cls-4" x="2.64" y="0.89" width="1107.33" height="176.81"/><text class="cls-5" transform="translate(974.03 74.43)">®</text><rect class="cls-4" y="0.89" width="1109.97" height="178.81"/></g></svg>