<svg xmlns="http://www.w3.org/2000/svg" viewBox="0 0 1111.82 178.81"><defs><style>.cls-1,.cls-3{fill:none;}.cls-2{fill:#231f20;}.cls-3{stroke:#6491cb;stroke-width:3.36px;}.cls-4{fill:#d2232a;}.cls-5{fill:#fff200;}.cls-6{fill:#6491cb;}</style></defs><title>Timeline_Logo</title><g id="Layer_1" data-name="Layer 1"><rect class="cls-1" y="-177.92" width="1109.97" height="178.81"/></g><g id="Timeline2021_Logo_Yellow"><polygon class="cls-2" points="3.61 2.68 3.61 176.13 1067.33 176.13 1107.59 135.87 1107.59 42.94 1067.33 2.68 3.61 2.68"/><polygon class="cls-3" points="3.61 2.68 3.61 176.13 1067.33 176.13 1107.59 135.87 1107.59 42.94 1067.33 2.68 3.61 2.68"/><polygon class="cls-3" points="3.61 30.73 3.61 148.08 1067.33 148.08 1107.59 107.81 1107.59 70.99 1067.33 30.73 3.61 30.73"/><path class="cls-4" d="M177.3,68.51H153.67V55.74h62V68.51H192v61.75H177.3Z"/><path class="cls-4" d="M224.57,55.74h14.69v74.52H224.57Z"/><path class="cls-4" d="M253.53,55.74h13.09L291,100l23.85-44.28h13.09v74.52H313.57V83.1l-15.65,28.31a12.61,12.61,0,0,1-3.25,4.1,6.15,6.15,0,0,1-3.77,1.23h-4l-19-33.64v47.16H253.53Z"/><path class="cls-4" d="M344,127.49a9.58,9.58,0,0,1-2.88-7.24V55.74H398V68.51H355.83V85.76h39V98.53h-39v19H398v12.78H351.47A10.27,10.27,0,0,1,344,127.49Z"/><path class="cls-4" d="M410.82,127.54a9.5,9.5,0,0,1-2.82-7.18V55.74h14.69v61.74h40.45v12.78H418.33A10.37,10.37,0,0,1,410.82,127.54Z"/><path class="cls-4" d="M471.66,55.74h14.69v74.52H471.66Z"/><path class="cls-4" d="M500.62,55.74h13.09l35.77,50.67V55.74h14.38v74.52h-13.1L515,79.58v50.68H500.62Z"/><path class="cls-4" d="M579.93,127.49a9.58,9.58,0,0,1-2.88-7.24V55.74H633.9V68.51H591.75V85.76h39V98.53h-39v19H633.9v12.78H587.38A10.28,10.28,0,0,1,579.93,127.49Z"/><path class="cls-5" d="M677.45,127.49a9.61,9.61,0,0,1-2.87-7.24V55.74h56.85V68.51H689.27V85.76h39V98.53h-39v19h42.16v12.78H684.9A10.28,10.28,0,0,1,677.45,127.49Z"/><path class="cls-5" d="M744.25,127.54a9.5,9.5,0,0,1-2.82-7.18V55.74h14.69v61.74h40.46v12.78H751.76A10.37,10.37,0,0,1,744.25,127.54Z"/><path class="cls-5" d="M805.09,55.74h14.7v74.52h-14.7Z"/><path class="cls-5" d="M852.36,68.51H828.73V55.74h62V68.51H867.05v61.75H852.36Z"/><path class="cls-5" d="M901.44,127.49a9.58,9.58,0,0,1-2.88-7.24V55.74h56.85V68.51H913.26V85.76h39V98.53h-39v19h42.15v12.78H908.89A10.28,10.28,0,0,1,901.44,127.49Z"/><rect class="cls-1" x="1.94" y="1" width="1107.33" height="176.81"/><path class="cls-6" d="M992.52,66a9.12,9.12,0,1,1-2.68-6.44A8.74,8.74,0,0,1,992.52,66Zm-1.62,0a7.29,7.29,0,0,0-2.19-5.33,7.42,7.42,0,0,0-10.59,0,7.55,7.55,0,0,0,5.3,12.88,7.17,7.17,0,0,0,5.29-2.22A7.29,7.29,0,0,0,990.9,66Zm-3.22,5h-2.5a5.09,5.09,0,0,1-.14-1.09,3.79,3.79,0,0,0-.36-1.86,2.25,2.25,0,0,0-1.87-.61h-.72V71h-2.54V61h3.6a8.17,8.17,0,0,1,2.64.29A2.64,2.64,0,0,1,987.68,64c0,1.47-.82,2.29-2.47,2.47a2.7,2.7,0,0,1,1.15.41,2.25,2.25,0,0,1,.93,1.16,4.92,4.92,0,0,1,.22,1.55A5.53,5.53,0,0,0,987.68,71Zm-2.62-6.87a1.16,1.16,0,0,0-.53-1.08,3.56,3.56,0,0,0-1.79-.33h-.65v2.93h.72C984.31,65.68,985.06,65.17,985.06,64.16Z"/></g></svg>