<svg xmlns="http://www.w3.org/2000/svg" width="22.36" height="22.359" viewBox="0 0 22.36 22.359"><g transform="translate(-1037.793 -347.75)"><path d="M3486.6,5138.75a.787.787,0,0,0-.8.8v20.752a.787.787,0,0,0,.8.8h20.751a.788.788,0,0,0,.805-.8v-20.752a.787.787,0,0,0-.805-.8Z" transform="translate(-2448 -4791)" fill="#303030"/><rect width="6" height="1.842" transform="translate(1049.793 351.57)" fill="#fff"/><rect width="1.842" height="20.021" transform="translate(1054.793 350.03)" fill="#fff"/><rect width="2.563" height="1.842" transform="translate(1043.715 351.57)" fill="#fff"/><path d="M3504.714,5144.415a.922.922,0,1,0-.921-.922.921.921,0,0,0,.921.922" transform="translate(-2448 -4791)" fill="#fff"/><path d="M3504.636,5141.03a.921.921,0,1,0-.921.921.92.92,0,0,0,.921-.921" transform="translate(-2448 -4791)" fill="#fff"/><path d="M3491.714,5144.415a.922.922,0,1,0-.921-.922.921.921,0,0,0,.921.922" transform="translate(-2448 -4791)" fill="#fff"/><path d="M3495.692,5145.356a1.863,1.863,0,1,0-1.863-1.863A1.865,1.865,0,0,0,3495.692,5145.356Z" transform="translate(-2448 -4791)" fill="none" stroke="#fff" stroke-width="1.66"/><rect width="6" height="1.842" transform="translate(1049.793 358.88)" fill="#fff"/><rect width="2.563" height="1.842" transform="translate(1043.715 358.88)" fill="#fff"/><path d="M3504.714,5151.723a.921.921,0,1,0-.921-.921.92.92,0,0,0,.921.921" transform="translate(-2448 -4791)" fill="#fff"/><path d="M3504.714,5151.723a.921.921,0,1,0-.921-.921.92.92,0,0,0,.921.921" transform="translate(-2448 -4784)" fill="#fff"/><path d="M3491.714,5151.723a.921.921,0,1,0-.921-.921.92.92,0,0,0,.921.921" transform="translate(-2448 -4791)" fill="#fff"/><path d="M3491.714,5151.723a.921.921,0,1,0-.921-.921.92.92,0,0,0,.921.921" transform="translate(-2448 -4784)" fill="#fff"/><path d="M3495.692,5152.666a1.864,1.864,0,1,0-1.863-1.864A1.866,1.866,0,0,0,3495.692,5152.666Z" transform="translate(-2448 -4791)" fill="none" stroke="#fff" stroke-width="1.66"/><path d="M3495.692,5152.666a1.864,1.864,0,1,0-1.863-1.864A1.866,1.866,0,0,0,3495.692,5152.666Z" transform="translate(-2448 -4784)" fill="none" stroke="#fff" stroke-width="1.66"/><rect width="6" height="1.842" transform="translate(1049.793 365.88)" fill="#fff"/><rect width="2.563" height="1.842" transform="translate(1043.715 365.88)" fill="#fff"/></g></svg>