<svg id="Layer_1" data-name="Layer 1" xmlns="http://www.w3.org/2000/svg" xmlns:xlink="http://www.w3.org/1999/xlink" viewBox="0 0 24 24"><defs><style>.cls-1,.cls-5{fill:none;}.cls-2{fill:#303030;}.cls-3{fill:#fff;}.cls-4{clip-path:url(#clip-path);}.cls-5{stroke:#fff;stroke-width:1.66px;}</style><clipPath id="clip-path"><rect class="cls-1" x="1.69" y="1.72" width="20.62" height="20.55"/></clipPath></defs><title>optionsButton</title><path class="cls-2" d="M1.62.82a.78.78,0,0,0-.8.8V22.38a.78.78,0,0,0,.8.8H22.38a.78.78,0,0,0,.8-.8V1.62a.78.78,0,0,0-.8-.8Z"/><rect class="cls-3" x="8.69" y="3.5" width="12.7" height="1.84"/><rect class="cls-3" x="2.61" y="11.38" width="13.08" height="1.84"/><rect class="cls-3" x="2.61" y="3.5" width="2.56" height="1.84"/><rect class="cls-3" x="18.69" y="11.37" width="2.7" height="1.84"/><g class="cls-4"><path class="cls-3" d="M21.39,5.34a.92.92,0,1,0-.92-.92.92.92,0,0,0,.92.92"/><path class="cls-3" d="M2.61,11.37a.93.93,0,1,0,.92.92.92.92,0,0,0-.92-.92"/><path class="cls-3" d="M2.61,5.34a.92.92,0,1,0-.92-.92.92.92,0,0,0,.92.92"/><path class="cls-3" d="M21.39,11.37a.93.93,0,1,0,.92.92.92.92,0,0,0-.92-.92"/><circle class="cls-5" cx="6.59" cy="4.42" r="1.86"/><circle class="cls-5" cx="17" cy="12.29" r="1.86"/></g><rect class="cls-3" x="8.69" y="18.66" width="12.7" height="1.84"/><rect class="cls-3" x="2.61" y="18.66" width="2.56" height="1.84"/><g class="cls-4"><path class="cls-3" d="M21.39,20.51a.93.93,0,1,0-.92-.92.92.92,0,0,0,.92.92"/><path class="cls-3" d="M2.61,20.51a.93.93,0,1,0-.92-.92.92.92,0,0,0,.92.92"/><circle class="cls-5" cx="6.59" cy="19.59" r="1.86"/></g></svg>