<svg id="Layer_1" data-name="Layer 1" xmlns="http://www.w3.org/2000/svg" xmlns:xlink="http://www.w3.org/1999/xlink" viewBox="0 0 22.3 22.3"><defs><style>.cls-1{fill:none;}.cls-2{clip-path:url(#clip-path);}.cls-3{fill:red;}.cls-4{isolation:isolate;}.cls-5{fill:#fff;}</style><clipPath id="clip-path" transform="translate(-1 -1)"><rect class="cls-1" x="-11.4" y="-1.2" width="45.7" height="27"/></clipPath></defs><title>RecButton_1</title><g class="cls-2"><path class="cls-3" d="M12.1,23.3A11.15,11.15,0,1,0,1,12.1H1A11.16,11.16,0,0,0,12.1,23.3" transform="translate(-1 -1)"/></g><g class="cls-4"><path class="cls-5" d="M9.4,5.9h3.2c1.3,0,1.9.7,1.9,2.1v3c0,1.1-.3,1.7-1,2l1.1,5.1H13l-1.1-5h-1v5H9.4ZM11,11.8h1.1c.5,0,.7-.3.7-.9V8.2c0-.6-.2-.9-.7-.9H11Z" transform="translate(-1 -1)"/></g></svg>