<svg xmlns="http://www.w3.org/2000/svg" xmlns:xlink="http://www.w3.org/1999/xlink" viewBox="0 0 4353.48 176.63"><defs><style>.cls-1,.cls-10,.cls-4,.cls-8,.cls-9{fill:none;}.cls-2{fill:#231f20;}.cls-3{clip-path:url(#clip-path);}.cls-4,.cls-9{stroke:#6491cb;}.cls-4{stroke-width:3.07px;}.cls-5{fill:#d2232a;}.cls-6{fill:#fff200;}.cls-7{fill:#6491cb;}.cls-8{stroke:#231f20;stroke-width:1.18px;}.cls-9{stroke-width:1.29px;}.cls-10{stroke:#d2232a;stroke-width:5px;}</style><clipPath id="clip-path" transform="translate(0 -0.11)"><rect class="cls-1" x="3246.13" width="1107.33" height="176.73"/></clipPath></defs><title>Asset 2</title><g id="Layer_2" data-name="Layer 2"><g id="Timeline2021_Logo"><polygon class="cls-2" points="3247.65 1.53 3247.65 175.09 4315.53 175.09 4351.95 138.31 4351.95 38.32 4315.53 1.53 3247.65 1.53"/><g class="cls-3"><polygon class="cls-4" points="3247.65 1.53 3247.65 175.09 4315.53 175.09 4351.95 138.31 4351.95 38.32 4315.53 1.53 3247.65 1.53"/></g><path class="cls-5" d="M3428.33,64.22H3403.1V50.58h66.15V64.22H3444v65.92h-15.69Z" transform="translate(0 -0.11)"/><path class="cls-5" d="M3478.8,50.58h15.68v79.56H3478.8Z" transform="translate(0 -0.11)"/><path class="cls-5" d="M3509.72,50.58h14l26,47.28,25.46-47.28h14v79.56h-15.35V79.79L3557.11,110a13.62,13.62,0,0,1-3.46,4.37,6.62,6.62,0,0,1-4,1.31h-4.32l-20.23-35.92v50.35h-15.34Z" transform="translate(0 -0.11)"/><path class="cls-5" d="M3606.33,127.19a10.27,10.27,0,0,1-3.07-7.73V50.58H3664V64.22h-45V82.63h41.6V96.27H3619v20.24h45v13.63h-49.67A11,11,0,0,1,3606.33,127.19Z" transform="translate(0 -0.11)"/><path class="cls-5" d="M3677.66,127.25a10.17,10.17,0,0,1-3-7.68v-69h15.69v65.93h43.19v13.63h-47.85A11,11,0,0,1,3677.66,127.25Z" transform="translate(0 -0.11)"/><path class="cls-5" d="M3742.62,50.58h15.68v79.56h-15.68Z" transform="translate(0 -0.11)"/><path class="cls-5" d="M3773.53,50.58h14l38.19,54.1V50.58h15.34v79.56h-14L3788.88,76v54.1h-15.35Z" transform="translate(0 -0.11)"/><path class="cls-5" d="M3858.21,127.19a10.27,10.27,0,0,1-3.07-7.73V50.58h60.7V64.22h-45V82.63h41.6V96.27h-41.6v20.24h45v13.63h-49.67A11,11,0,0,1,3858.21,127.19Z" transform="translate(0 -0.11)"/><path class="cls-6" d="M3956,118.78a26.08,26.08,0,0,1,2.5-11.82,21.55,21.55,0,0,1,8.53-8.64l28.19-16.82a8.48,8.48,0,0,0,3.24-3.19,8.1,8.1,0,0,0,1.19-4.09V70.58a6.32,6.32,0,0,0-2.33-5.11,9.2,9.2,0,0,0-6.08-1.93h-10.46a8.26,8.26,0,0,0-6.93,3.24q-2.51,3.24-2.5,9.15h-15.69q0-12.39,6.59-19.33t18.3-6.93h10.69a29,29,0,0,1,12.62,2.61,19.63,19.63,0,0,1,11.48,18.3v3.64a20.51,20.51,0,0,1-2.56,10.51,21.53,21.53,0,0,1-8,7.56l-27.39,15.92a13.44,13.44,0,0,0-4.15,3.52,7.83,7.83,0,0,0-1.42,4.78h44v13.63H3956Z" transform="translate(0 -0.11)"/><path class="cls-6" d="M4036.9,127.59a24.15,24.15,0,0,1-9.55-9.84,30.6,30.6,0,0,1-3.41-14.66V77.63A30.93,30.93,0,0,1,4027.3,63a23.67,23.67,0,0,1,9.49-9.83A28.38,28.38,0,0,1,4051,49.67h12a27.33,27.33,0,0,1,13.87,3.47,23.92,23.92,0,0,1,9.38,9.83,31,31,0,0,1,3.35,14.66v25.46a31.51,31.51,0,0,1-3.29,14.66,23.62,23.62,0,0,1-9.32,9.84,27.57,27.57,0,0,1-14,3.46h-12A28.17,28.17,0,0,1,4036.9,127.59Zm25.92-10.4a9.7,9.7,0,0,0,8-3.81q3-3.81,3-10.06V77.4q0-6.24-3-10.06a9.72,9.72,0,0,0-8-3.8h-11.6a10.44,10.44,0,0,0-8.41,3.8q-3.18,3.81-3.18,10.06v25.92q0,6.25,3.18,10.06a10.42,10.42,0,0,0,8.41,3.81Z" transform="translate(0 -0.11)"/><path class="cls-6" d="M4098.85,118.78a26.08,26.08,0,0,1,2.5-11.82,21.58,21.58,0,0,1,8.52-8.64l28.19-16.82a8.35,8.35,0,0,0,3.24-3.19,8,8,0,0,0,1.2-4.09V70.58a6.32,6.32,0,0,0-2.33-5.11,9.21,9.21,0,0,0-6.08-1.93h-10.46a8.28,8.28,0,0,0-6.94,3.24c-1.66,2.16-2.5,5.21-2.5,9.15h-15.68q0-12.39,6.59-19.33t18.3-6.93h10.69a28.87,28.87,0,0,1,12.61,2.61,19.58,19.58,0,0,1,11.48,18.3v3.64a20.51,20.51,0,0,1-2.55,10.51,21.53,21.53,0,0,1-8,7.56l-27.39,15.92a13.44,13.44,0,0,0-4.15,3.52,7.83,7.83,0,0,0-1.42,4.78h44v13.63h-59.79Z" transform="translate(0 -0.11)"/><path class="cls-6" d="M4181.71,67.63l-18.3,9.21V62.29l22.05-11.71h11.94v79.56h-15.69Z" transform="translate(0 -0.11)"/><path class="cls-7" d="M4231.17,55.71a9.75,9.75,0,1,1-2.86-6.87A9.33,9.33,0,0,1,4231.17,55.71Zm-1.73,0a7.82,7.82,0,0,0-2.34-5.7,7.94,7.94,0,0,0-11.3,0,8.08,8.08,0,0,0,0,11.39,7.92,7.92,0,0,0,11.3,0A7.78,7.78,0,0,0,4229.44,55.71ZM4226,61.05h-2.66a4.48,4.48,0,0,1-.15-1.16,4.21,4.21,0,0,0-.39-2,2.41,2.41,0,0,0-2-.64H4220v3.79h-2.71V50.33h3.85a9.13,9.13,0,0,1,2.82.31,2.83,2.83,0,0,1,2,2.87c0,1.57-.88,2.45-2.63,2.64a2.72,2.72,0,0,1,1.22.44,2.38,2.38,0,0,1,1,1.24,4.83,4.83,0,0,1,.23,1.65A6,6,0,0,0,4226,61.05Zm-2.79-7.33a1.23,1.23,0,0,0-.57-1.15,3.86,3.86,0,0,0-1.91-.35h-.7v3.13h.78C4222.41,55.35,4223.21,54.8,4223.21,53.72Z" transform="translate(0 -0.11)"/><g class="cls-3"><polygon class="cls-4" points="3247.65 29.55 3247.65 147.07 4315.53 147.07 4351.95 110.29 4351.95 66.34 4315.53 29.55 3247.65 29.55"/></g></g><g id="Layer_6" data-name="Layer 6"><polygon class="cls-5" points="3226.12 167.66 3226.12 1.37 3200.57 1.37 3200.57 135.03 3226.12 167.66"/><polygon class="cls-8" points="3226.12 167.66 3226.12 1.37 3200.57 1.37 3200.57 135.03 3226.12 167.66"/><line class="cls-9" x1="3183.42" y1="137.02" y2="137.02"/><line class="cls-9" x1="3183.42" y1="73.33" x2="8.77" y2="73.33"/><line class="cls-10" x1="3181.83" y1="92.38" y2="92.38"/><line class="cls-10" x1="3181.83" y1="116.77" y2="116.77"/></g></g></svg>