<svg xmlns="http://www.w3.org/2000/svg" width="40.376" height="40.375" viewBox="0 0 40.376 40.375"><g transform="translate(-642.314 -29.703)"><path d="M3597.5,4428.578a19.688,19.688,0,1,0-19.688-19.687,19.686,19.686,0,0,0,19.688,19.687" transform="translate(-2935 -4359)" fill="#f1f2f6" stroke="#000" stroke-width="1"/><g transform="translate(9045 -43)"><path d="M562.612,1189.875l-8.033,6.068a.576.576,0,0,1-.7,0l-8.033-6.068a.577.577,0,0,1,.347-1.037h16.066a.577.577,0,0,1,.348,1.037Z" transform="translate(-8936.791 -1102.771)" fill="#7dba9a" stroke="#000" stroke-linecap="round" stroke-linejoin="round" stroke-width="0.5"/><path d="M553.678,1207.266H533.971l-2.826,2.795v-17.372a.577.577,0,0,1,.924-.46L542.352,1200a.578.578,0,0,0,.7,0l10.283-7.768a.577.577,0,0,1,.924.46v14A.577.577,0,0,1,553.678,1207.266Z" transform="translate(-8925.26 -1105.379)" fill="#7dba9a" stroke="#000" stroke-linecap="round" stroke-linejoin="round" stroke-width="0.5"/></g></g></svg>