<svg xmlns="http://www.w3.org/2000/svg" width="40.376" height="40.375" viewBox="0 0 40.376 40.375"><g transform="translate(-689.314 -29.703)"><g transform="translate(255)"><path d="M3597.5,4428.578a19.688,19.688,0,1,0-19.688-19.687,19.686,19.686,0,0,0,19.688,19.687" transform="translate(-3143 -4359)" fill="#f1f2f6" stroke="#000" stroke-width="1"/><path d="M556.484,1066.873l-1.9,1.439a.576.576,0,0,1-.7,0l-8.033-6.068a.577.577,0,0,1,.347-1.037h8.977v3.6A2.282,2.282,0,0,0,556.484,1066.873Z" transform="translate(-99.791 -1018.103)" fill="#7dba9a" stroke="#000" stroke-linecap="round" stroke-linejoin="round" stroke-width="0.5"/><path d="M554.255,1069.553v9.5a.577.577,0,0,1-.577.577H533.971l-2.826,2.794v-17.372a.577.577,0,0,1,.924-.46l10.283,7.768a.577.577,0,0,0,.7,0l3.529-2.666h6.875A2.282,2.282,0,0,0,554.255,1069.553Z" transform="translate(-88.26 -1020.711)" fill="#7dba9a" stroke="#000" stroke-linecap="round" stroke-linejoin="round" stroke-width="0.5"/><g transform="translate(1 2)"><g transform="translate(456 36)" fill="#f53736" stroke="#000" stroke-width="0.5"><rect width="10" height="10" rx="2" stroke="none"/><rect x="0.25" y="0.25" width="9.5" height="9.5" rx="1.75" fill="none"/></g><text transform="translate(459.027 43.707)" fill="#fff" font-size="7" font-family="Quantico-Regular, Quantico"><tspan x="0" y="0">1</tspan></text></g></g></g></svg>