<svg xmlns="http://www.w3.org/2000/svg" width="40.376" height="40.375" viewBox="0 0 40.376 40.375"><g transform="translate(-549.314 -29.703)"><path d="M3597.5,4428.578a19.688,19.688,0,1,0-19.688-19.687,19.686,19.686,0,0,0,19.688,19.687" transform="translate(-3028 -4359)" fill="#f1f2f6" stroke="#000" stroke-width="1"/><g transform="translate(557.391 34.935)"><path d="M773.888,766.082h-3.158l-.616.6a4.205,4.205,0,0,0,.48,1.4,3.708,3.708,0,0,0,.859,1.086,3.64,3.64,0,0,0,.946.551,3.89,3.89,0,0,0,2.98,0,3.638,3.638,0,0,0,.946-.551,3.709,3.709,0,0,0,.859-1.086,4.208,4.208,0,0,0,.48-1.4l-.616-.6Z" transform="translate(-761.589 -741.073)" fill="#7dba9a" stroke="#000" stroke-linecap="round" stroke-linejoin="round" stroke-width="0.5"/><path d="M740.588,645.4a1.325,1.325,0,0,0-.493.066,1.58,1.58,0,0,0-.909.715,1.289,1.289,0,0,0-.128.65c-.012.337-.012.863-.012,2.3-.382.128-.906.271-1.439.465a8.614,8.614,0,0,0-1.539.725,6.767,6.767,0,0,0-1.272,1.031,9.042,9.042,0,0,0-1.219,1.493,7.981,7.981,0,0,0-.869,1.843,7.832,7.832,0,0,0-.318,1.886c-.053.728-.085,1.631-.09,2.385a9.505,9.505,0,0,1-.3,2.656,41.625,41.625,0,0,1-1.362,4.319c-.4,1.036-.562,1.121-.731,1.185s-.349.106-.525.165a2.352,2.352,0,0,0-.5.228,1.156,1.156,0,0,0-.392.377,1.6,1.6,0,0,0-.2.682,1.03,1.03,0,0,0,.382,1.023h23.809a1.03,1.03,0,0,0,.381-1.023,1.592,1.592,0,0,0-.2-.682,1.155,1.155,0,0,0-.392-.377,2.355,2.355,0,0,0-.5-.228c-.175-.059-.355-.1-.525-.165s-.328-.149-.731-1.185a41.625,41.625,0,0,1-1.362-4.319,9.5,9.5,0,0,1-.3-2.656c-.005-.754-.037-1.658-.09-2.385a7.832,7.832,0,0,0-.318-1.886,7.975,7.975,0,0,0-.869-1.843,9.06,9.06,0,0,0-1.219-1.493,6.768,6.768,0,0,0-1.272-1.031,8.615,8.615,0,0,0-1.539-.725c-.532-.194-1.057-.337-1.439-.465,0-1.435,0-1.96-.012-2.3a1.288,1.288,0,0,0-.128-.65,1.646,1.646,0,0,0-.418-.468,1.624,1.624,0,0,0-.491-.247A1.323,1.323,0,0,0,740.588,645.4Z" transform="translate(-728.29 -645.404)" fill="#7dba9a" stroke="#000" stroke-linecap="round" stroke-linejoin="round" stroke-width="0.5"/></g></g></svg>