<svg xmlns="http://www.w3.org/2000/svg" width="40.376" height="40.375" viewBox="0 0 40.376 40.375"><g transform="translate(-594.314 -29.703)"><path d="M3597.5,4428.578a19.688,19.688,0,1,0-19.688-19.687,19.686,19.686,0,0,0,19.688,19.687" transform="translate(-2983 -4359)" fill="#f1f2f6" stroke="#000" stroke-width="1"/><g transform="translate(602.37 34.978)"><path d="M779.731,1144.818a4.033,4.033,0,0,1-.463,1.35,3.564,3.564,0,0,1-.828,1.045,3.514,3.514,0,0,1-.912.53,3.762,3.762,0,0,1-2.874,0,3.516,3.516,0,0,1-.912-.53,3.57,3.57,0,0,1-.828-1.045,4.042,4.042,0,0,1-.463-1.35l.594-.575h6.091Z" transform="translate(-763.793 -1119.032)" fill="#7dba9a" stroke="#000" stroke-linecap="round" stroke-linejoin="round" stroke-width="0.5"/><path d="M751.215,1036.471a8.945,8.945,0,0,0,.293,2.161,41.417,41.417,0,0,0,1.362,4.308c.4,1.033.562,1.118.731,1.182s.35.106.524.164a2.366,2.366,0,0,1,.5.228,1.158,1.158,0,0,1,.392.376,1.588,1.588,0,0,1,.2.681,1.025,1.025,0,0,1-.381,1.02H731.022a1.026,1.026,0,0,1-.382-1.02,1.593,1.593,0,0,1,.2-.681,1.16,1.16,0,0,1,.392-.376,2.364,2.364,0,0,1,.5-.228c.175-.058.355-.1.525-.164s.329-.148.731-1.182a41.4,41.4,0,0,0,1.362-4.308,9.458,9.458,0,0,0,.3-2.649c.005-.752.037-1.653.09-2.379a7.776,7.776,0,0,1,.318-1.881,7.937,7.937,0,0,1,.869-1.839,9.038,9.038,0,0,1,1.219-1.489,6.763,6.763,0,0,1,1.271-1.028,8.628,8.628,0,0,1,1.539-.723c.533-.194,1.057-.337,1.439-.464,0-1.431,0-1.955.012-2.292a1.279,1.279,0,0,1,.128-.648,1.58,1.58,0,0,1,.908-.713,1.88,1.88,0,0,1,.985,0,1.58,1.58,0,0,1,.909.713,1.277,1.277,0,0,1,.128.648c.008.221.011.524.011,1.111a2.323,2.323,0,0,0-.576,1.531v7.617a2.323,2.323,0,0,0,2.323,2.323Z" transform="translate(-730.628 -1022.462)" fill="#7dba9a" stroke="#000" stroke-linecap="round" stroke-linejoin="round" stroke-width="0.5"/><g transform="translate(14.431 4.004)"><g transform="translate(0.199 0.018)" fill="#f53736" stroke="#000" stroke-width="0.5"><rect width="9" height="9" rx="2" stroke="none"/><rect x="0.25" y="0.25" width="8.5" height="8.5" rx="1.75" fill="none"/></g><text transform="translate(2.768 6.646)" fill="#fff" font-size="6" font-family="Quantico-Regular, Quantico"><tspan x="0" y="0">1</tspan></text></g></g></g></svg>