<svg xmlns="http://www.w3.org/2000/svg" width="40.376" height="40.376" viewBox="0 0 40.376 40.376"><g transform="translate(-777.5 -656.5)"><path d="M3597.5,4428.58a19.688,19.688,0,1,0-19.688-19.687,19.688,19.688,0,0,0,19.688,19.688" transform="translate(-2799.812 -3732.204)" fill="#f1f2f6" stroke="#000" stroke-width="1"/><path d="M282.568,737.648c-7.725,0-8.538-.109-9.141-.213a8.93,8.93,0,0,1-1.33-.313,3.345,3.345,0,0,1-.808-.37,1.7,1.7,0,0,1-.445-.438,1.127,1.127,0,0,1-.217-.542,7.75,7.75,0,0,1-.037-.994,8.074,8.074,0,0,1,.069-1.249,8.954,8.954,0,0,1,.416-1.586,8.087,8.087,0,0,1,1.177-2.243,12.677,12.677,0,0,1,2.987-2.993c1.2-.8,2.506-1.175,5.333-1.346L282.5,727.6l1.924-2.237c2.827.171,4.132.544,5.333,1.346a12.677,12.677,0,0,1,2.987,2.993,8.085,8.085,0,0,1,1.177,2.243,8.955,8.955,0,0,1,.416,1.586,8.069,8.069,0,0,1,.069,1.249,7.755,7.755,0,0,1-.037.994,1.126,1.126,0,0,1-.217.542,1.7,1.7,0,0,1-.445.438,3.347,3.347,0,0,1-.808.37,8.921,8.921,0,0,1-1.33.313c-.6.1-1.416.213-9.141.213" transform="translate(515.305 -48.322)" fill="#85c4a3" stroke="#000" stroke-linecap="round" stroke-linejoin="round" stroke-width="1"/><path d="M335.706,726.418a2.146,2.146,0,0,0-2.8,0l1.4,1.627Z" transform="translate(463.495 -48.772)" fill="#85c4a3" stroke="#000" stroke-linecap="round" stroke-linejoin="round" stroke-width="1"/><path d="M313.264,640.131a7.107,7.107,0,1,0-.5,2.617,7.107,7.107,0,0,0,.5-2.617Z" transform="translate(491.645 28.448)" fill="#85c4a3" stroke="#000" stroke-linecap="round" stroke-linejoin="round" stroke-width="1"/><path d="M329.8,725.361l1.924,12.286,1.924-12.286Z" transform="translate(466.085 -48.322)" fill="red" stroke="#000" stroke-linecap="round" stroke-linejoin="round" stroke-width="1"/></g></svg>