<svg id="Layer_4" data-name="Layer 4" xmlns="http://www.w3.org/2000/svg" viewBox="0 0 24 24"><defs><style>.cls-1{fill:#8c5aa5;}.cls-2{fill:#fef8e7;stroke:#ffe600;stroke-miterlimit:10;stroke-width:0.25px;}</style></defs><title>verifiedIcon</title><path class="cls-1" d="M2.73,5.87s0-.06,0-.09a1.73,1.73,0,0,1,.07-.47A1.14,1.14,0,0,1,3,5a1.29,1.29,0,0,1,.35-.29c.15-.09.35-.18,1.75-.8s4-1.78,5.3-2.36,1.35-.59,1.4-.6a1.5,1.5,0,0,1,.22,0,1.5,1.5,0,0,1,.22,0s.08,0,1.4.6,3.91,1.73,5.3,2.36,1.6.71,1.75.8A1.29,1.29,0,0,1,21,5a1.14,1.14,0,0,1,.19.34,1.73,1.73,0,0,1,.07.47.28.28,0,0,1,0,.09c0,1,0,2.07,0,3.1s0,2.06-.1,3.09a12.26,12.26,0,0,1-.6,3,14,14,0,0,1-1.39,2.76,12.35,12.35,0,0,1-1.85,2.44A10.06,10.06,0,0,1,14.87,22a10.59,10.59,0,0,1-2.85,1,10.59,10.59,0,0,1-2.85-1,10.26,10.26,0,0,1-2.48-1.76,12.74,12.74,0,0,1-1.85-2.44,14,14,0,0,1-1.39-2.76,12.74,12.74,0,0,1-.6-3C2.76,11,2.76,10,2.75,9S2.72,6.9,2.73,5.87Z"/><path class="cls-2" d="M6.66,12.62,9.92,15.9a1.16,1.16,0,0,0,1.5-.13l5.92-5.85A1.16,1.16,0,0,0,15.68,8.3l-5.08,5L8.21,10.92a1.15,1.15,0,0,0-1.55,1.7Z"/></svg>